<svg xmlns="http://www.w3.org/2000/svg" width="144.066" height="14.928" viewBox="0 0 144.066 14.928">
    <defs>
        <style>
            .prefix__cls-1{fill:#e87a00}.prefix__cls-2{fill:#6f7274}
        </style>
    </defs>
    <g id="prefix__Logo_Gris" data-name="Logo Gris" transform="translate(72.04 7.729)">
        <g id="prefix__LogoGris" transform="translate(-.007 -.265)">
            <g id="prefix___Group_" data-name="&lt;Group&gt;" transform="translate(-72.033 -7.464)">
                <g id="prefix___Group_2" data-name="&lt;Group&gt;" transform="translate(67.042 2.115)">
                    <path id="prefix___Compound_Path_" d="M130.3 4.151v3.962h5.917V6.261l2.11-2.161z" class="prefix__cls-1" data-name="&lt;Compound Path&gt;" transform="translate(-130.3 -4.1)"/>
                    <path id="prefix___Compound_Path_2" d="M130.3 16.5v3.962h5.917v-1.8l2.11-2.161z" class="prefix__cls-1" data-name="&lt;Compound Path&gt;" transform="translate(-130.3 -10.12)"/>
                </g>
                <path id="prefix___Path_" d="M11.165 10.44c0 2.367-1.7 4.425-5.557 4.425A7.726 7.726 0 0 1 0 12.858l1.7-1.7a6.174 6.174 0 0 0 4.013 1.492c2.058 0 2.881-1.029 2.881-1.955S7.049 9 5.3 8.587l-.823-.206C2.367 7.764.206 6.941.206 4.214S2.315-.005 5.454-.005A7.512 7.512 0 0 1 10.856 2l-1.7 1.7a5.917 5.917 0 0 0-3.91-1.441c-1.492 0-2.418.72-2.418 1.8s1.441 1.492 3.19 1.9l.669.206c2.163.57 4.478 1.445 4.478 4.275z" class="prefix__cls-2" data-name="&lt;Path&gt;" transform="translate(0 .011)"/>
                <path id="prefix___Path_2" d="M162.265 10.44c0 2.367-1.7 4.425-5.557 4.425a7.834 7.834 0 0 1-5.608-2.058l1.7-1.7a6.174 6.174 0 0 0 4.013 1.492c2.058 0 2.881-1.029 2.881-1.955s-1.544-1.7-3.293-2.11l-.823-.206c-2.11-.566-4.322-1.389-4.322-4.116s2.161-4.219 5.3-4.219a7.512 7.512 0 0 1 5.4 2.007l-1.646 1.648a5.917 5.917 0 0 0-3.91-1.441c-1.492 0-2.418.72-2.418 1.8s1.441 1.492 3.19 1.9l.72.206c2.108.622 4.373 1.497 4.373 4.327z" class="prefix__cls-2" data-name="&lt;Path&gt;" transform="translate(-73.356 .011)"/>
                <path id="prefix___Compound_Path_3" d="M29.2.5h2.521v8.592a3.422 3.422 0 0 0 3.7 3.756c2.418 0 3.653-1.492 3.653-3.756V.5H41.6v8.7c0 3.6-2.058 5.968-6.226 5.968S29.2 12.746 29.2 9.2z" class="prefix__cls-2" data-name="&lt;Compound Path&gt;" transform="translate(-14.176 -.237)"/>
                <path id="prefix___Path_3" d="M74.479 6.893v5.4a7.821 7.821 0 0 1-5.917 2.624 7.666 7.666 0 0 1-5.351-2.058A7.306 7.306 0 0 1 61 7.459 7.269 7.269 0 0 1 68.562 0 6.74 6.74 0 0 1 73.6 2.108l.154.206h-.051l-1.54 1.646a4.579 4.579 0 0 0-3.6-1.7 4.991 4.991 0 0 0-2.367.566 5.094 5.094 0 0 0-2.624 4.631 5.351 5.351 0 0 0 1.389 3.7 4.785 4.785 0 0 0 3.6 1.544 5.3 5.3 0 0 0 3.4-1.286V9.106h-4.274v-.669l1.544-1.492z" class="prefix__cls-2" data-name="&lt;Path&gt;" transform="translate(-29.613 .007)"/>
                <path id="prefix___Path_4" d="M107.479 6.893v5.4a7.821 7.821 0 0 1-5.917 2.624 7.666 7.666 0 0 1-5.351-2.058A7.306 7.306 0 0 1 94 7.459 7.269 7.269 0 0 1 101.562 0a6.74 6.74 0 0 1 5.042 2.11l.154.206h-.051l-1.6 1.6a4.579 4.579 0 0 0-3.6-1.7 4.991 4.991 0 0 0-2.367.566 5.094 5.094 0 0 0-2.624 4.631 5.351 5.351 0 0 0 1.389 3.7 4.785 4.785 0 0 0 3.6 1.544 5.3 5.3 0 0 0 3.4-1.286V9.106h-4.322v-.669l1.544-1.492z" class="prefix__cls-2" data-name="&lt;Path&gt;" transform="translate(-45.633 .007)"/>
                <path id="prefix___Compound_Path_4" d="M182.373 2.712H178V.5h11.268v2.212h-4.373v12.143h-2.521z" class="prefix__cls-2" data-name="&lt;Compound Path&gt;" transform="translate(-86.415 -.237)"/>
                <path id="prefix___Compound_Path_5" d="M206.9.5v14.355h2.521V.5z" class="prefix__cls-2" data-name="&lt;Compound Path&gt;" transform="translate(-100.446 -.237)"/>
                <path id="prefix___Compound_Path_6" d="M226.858 0a7.134 7.134 0 0 1 7.358 7.461 7.358 7.358 0 1 1-14.715 0A7.134 7.134 0 0 1 226.858 0zm0 2.264c-2.933 0-4.785 2.212-4.785 5.2s1.852 5.2 4.785 5.2 4.785-2.264 4.785-5.2-1.904-5.2-4.785-5.2z" class="prefix__cls-2" data-name="&lt;Compound Path&gt;" transform="translate(-106.563 .005)"/>
                <path id="prefix___Compound_Path_7" d="M258.221 4.41v10.445H255.7V.5h2.573l7.358 10.187V.5h2.569v14.407h-2.418z" class="prefix__cls-2" data-name="&lt;Compound Path&gt;" transform="translate(-124.137 -.237)"/>
            </g>
        </g>
    </g>
</svg>
